<?xml version="1.0" encoding="UTF-8" standalone="no"?>
<svg
   version="1.1"
   id="Layer_1"
   x="0px"
   y="0px"
   width="92"
   height="120"
   viewBox="0 0 1250 1628"
   enable-background="new 0 0 1250 1628"
   xml:space="preserve"
   sodipodi:docname="bcf454acf82e4504149f7ffe07081dbc.svg"
   inkscape:version="1.4 (86a8ad7, 2024-10-11)"
   xmlns:inkscape="http://www.inkscape.org/namespaces/inkscape"
   xmlns:sodipodi="http://sodipodi.sourceforge.net/DTD/sodipodi-0.dtd"
   xmlns="http://www.w3.org/2000/svg"
   xmlns:svg="http://www.w3.org/2000/svg"><defs
   id="defs11" /><sodipodi:namedview
   id="namedview11"
   pagecolor="#ffffff"
   bordercolor="#000000"
   borderopacity="0.25"
   inkscape:showpageshadow="2"
   inkscape:pageopacity="0.0"
   inkscape:pagecheckerboard="0"
   inkscape:deskcolor="#d1d1d1"
   inkscape:zoom="6.725"
   inkscape:cx="46.022305"
   inkscape:cy="60"
   inkscape:window-width="1920"
   inkscape:window-height="1009"
   inkscape:window-x="-8"
   inkscape:window-y="-8"
   inkscape:window-maximized="1"
   inkscape:current-layer="Layer_1" />

<path
   fill="#E30716"
   opacity="1.000000"
   stroke="none"
   d=" M291.468384,1629.000000   C287.584686,1627.322388 284.113831,1625.748047 280.764160,1623.948242   C269.319794,1617.798584 263.129547,1608.291626 263.027161,1595.190796   C262.909973,1580.192871 263.028351,1565.192993 262.957489,1550.194458   C262.950165,1548.641479 262.892731,1546.494873 261.942871,1545.635254   C254.834717,1539.201294 253.962799,1530.201660 252.098129,1521.770996   C248.584015,1505.882812 248.251358,1489.642700 249.168427,1473.509399   C249.903748,1460.573120 251.205322,1447.519043 256.112610,1435.295898   C257.453308,1431.956543 260.091949,1429.157715 261.887695,1425.971558   C262.603363,1424.701782 262.948120,1423.055786 262.954285,1421.578857   C263.025696,1404.413818 263.518066,1387.228394 262.862579,1370.088013   C262.123047,1350.750610 272.526917,1338.030273 290.177704,1332.888672   C290.434998,1332.813843 290.623749,1332.503906 291.621155,1331.598755   C289.695831,1323.462280 287.494385,1314.858643 285.641724,1306.180542   C281.990540,1289.078247 278.452759,1271.950439 275.020355,1254.802856   C272.251556,1240.970581 269.510895,1227.126953 267.123016,1213.225830   C265.138855,1201.674805 263.746033,1190.023438 261.982147,1178.433105   C260.098114,1166.053833 257.972656,1153.710693 256.168976,1141.320190   C254.922485,1132.757446 254.106171,1124.133057 252.984924,1115.550781   C251.401245,1103.428955 249.642471,1091.329956 248.098404,1079.203369   C247.250778,1072.546265 246.751160,1065.845581 245.986237,1059.177002   C244.720764,1048.144531 243.298462,1037.129883 242.075790,1026.092896   C241.263519,1018.760681 240.752975,1011.395447 239.984375,1004.057922   C238.723709,992.023132 237.278152,980.007324 236.073792,967.967163   C235.240341,959.634888 234.751968,951.268677 233.984039,942.929138   C232.722214,929.226135 231.335114,915.534729 230.051224,901.833740   C229.621750,897.250732 229.323196,892.654907 229.004730,888.062195   C227.991928,873.456238 227.081375,858.842590 225.962723,844.244873   C225.374466,836.568665 224.434998,828.919373 223.613113,820.855469   C212.230881,825.066711 201.951752,831.040771 192.306778,838.196228   C164.035019,859.170654 144.885742,887.194946 130.709793,918.851868   C119.442009,944.014526 111.483871,970.289368 107.038773,997.530090   C104.417320,1013.595032 102.183739,1029.727539 100.034317,1045.864136   C96.992287,1068.701660 96.780075,1091.685547 96.940178,1114.677734   C96.942215,1114.969238 96.728081,1115.262207 96.529953,1115.773682   C83.652657,1115.773682 70.705353,1115.773682 57.478035,1115.773682   C57.358963,1115.369385 57.021370,1114.771484 57.032131,1114.179932   C57.333996,1097.588379 57.039387,1080.954224 58.170216,1064.417969   C59.441452,1045.828857 61.351688,1027.229126 64.146225,1008.810242   C69.373558,974.356812 77.900047,940.715271 91.181473,908.362976   C99.586487,887.889160 110.184761,868.608093 123.167450,850.796143   C135.990219,833.203491 151.122314,817.694153 168.982483,804.945007   C184.006027,794.220703 200.204727,785.911926 217.706924,780.242432   C220.820160,779.234009 221.218002,777.779602 220.983215,775.317505   C220.362106,768.803528 219.470139,762.309143 219.052933,755.783447   C218.515167,747.371704 218.425644,738.932251 217.980957,730.513306   C217.041931,712.734985 215.979492,694.963196 215.002502,677.186829   C214.305511,664.505127 213.443619,651.827209 213.045914,639.135376   C212.225647,612.957703 211.152344,586.770386 211.223419,560.589905   C211.257431,548.060425 213.625259,535.533142 215.004288,523.012390   C217.282852,502.324554 222.159637,482.169647 228.072144,462.280334   C235.873154,436.038269 246.144867,410.718781 259.187103,386.665314   C270.476898,365.843811 282.708832,345.493378 298.182587,327.419373   C311.343475,312.046844 324.213867,296.278778 338.727386,282.252991   C352.913818,268.543243 368.690155,256.392700 384.360046,244.325775   C404.197845,229.049271 426.042603,216.866882 448.626953,206.165604   C475.687592,193.343277 503.804932,183.243286 533.152466,177.131393   C549.520142,173.722672 566.145813,171.506699 582.701050,169.063782   C590.949158,167.846664 599.300293,167.328354 607.991760,166.455048   C609.651123,151.039612 611.292297,135.455292 613.015625,119.880035   C614.633423,105.259476 616.331421,90.647766 618.006714,76.033607   C618.992981,67.429932 619.977905,58.825840 621.048035,50.232468   C621.143982,49.461845 621.863098,48.768810 622.292786,48.039738   C622.860840,48.800575 623.814636,49.502892 623.940308,50.330864   C626.675598,68.356606 629.151672,86.422989 632.024597,104.426163   C635.172302,124.151230 638.663696,143.821518 642.023682,163.512543   C642.419983,165.834763 643.433899,166.957153 646.233765,167.095352   C670.385925,168.287537 694.235779,171.428513 717.888367,176.798828   C747.334961,183.484634 775.564636,193.230240 802.962097,205.877487   C828.829834,217.818588 852.884460,232.666962 875.762390,249.439651   C897.680298,265.508484 917.241760,284.355988 935.572388,304.312927   C953.872314,324.236420 969.927795,346.074066 983.622620,369.408966   C1003.254944,402.860931 1019.092896,438.061432 1027.943481,476.013550   C1031.840210,492.722809 1035.081665,509.611420 1037.875732,526.541565   C1039.632202,537.184875 1040.280029,548.040039 1040.924927,558.830017   C1041.596436,570.067810 1042.091797,581.348694 1041.901611,592.597839   C1041.608032,609.953918 1040.735474,627.302246 1039.973511,644.647888   C1039.430664,657.003357 1038.691284,669.350647 1037.993774,681.698914   C1037.017700,698.975464 1036.050415,716.252686 1034.982544,733.523682   C1034.058350,748.469910 1033.020752,763.409302 1031.992798,778.348877   C1031.021851,792.458801 1030.052490,806.569275 1028.971558,820.671021   C1028.512451,826.659180 1027.770752,832.625732 1026.972778,840.401733   C1037.705444,834.330933 1047.869629,829.446594 1057.048218,823.129761   C1065.112793,817.579468 1072.322144,810.687500 1079.465820,803.919983   C1091.644409,792.382751 1100.911865,778.552795 1109.369141,764.167480   C1124.918701,737.718323 1134.715576,708.992371 1141.673096,679.342407   C1145.413330,663.403320 1147.753540,647.086975 1149.869873,630.829590   C1151.837158,615.718079 1153.140259,600.481079 1153.861206,585.257874   C1154.517822,571.391052 1154.000122,557.468567 1154.000122,543.286438   C1168.344360,543.286438 1181.409302,543.286438 1194.051147,543.286438   C1194.051147,555.534424 1194.052612,567.729980 1194.048950,579.925537   C1194.048584,581.091736 1194.084839,582.263489 1193.989990,583.423279   C1192.677368,599.453613 1191.398926,615.486877 1190.004272,631.510071   C1188.013062,654.386841 1183.649292,676.877136 1177.899902,699.054504   C1172.633301,719.369751 1165.892456,739.210876 1157.324707,758.456421   C1149.642212,775.713745 1140.319214,791.928955 1129.317993,807.216003   C1118.128540,822.764709 1105.127075,836.527527 1090.113647,848.562256   C1071.093140,863.809143 1049.937622,874.449951 1026.620239,881.237366   C1024.929321,881.729553 1023.387451,885.410706 1023.148926,887.749207   C1022.148010,897.563843 1021.852844,907.448608 1020.953735,917.276062   C1019.820923,929.657043 1018.265137,941.998779 1017.056274,954.373535   C1016.226013,962.872498 1015.819885,971.413330 1014.965088,979.909363   C1013.786987,991.618652 1012.334106,1003.300049 1011.058228,1014.999817   C1010.312439,1021.838806 1009.753296,1028.698364 1008.983887,1035.534546   C1007.723389,1046.734009 1006.330017,1057.918457 1005.049500,1069.115723   C1003.990356,1078.377563 1003.151611,1087.666504 1001.964600,1096.911255   C1000.471130,1108.544189 998.666992,1120.136963 997.100464,1131.760864   C995.662109,1142.433960 994.466187,1153.140137 992.971619,1163.805054   C991.345459,1175.408813 989.601746,1186.998291 987.717529,1198.562866   C985.942566,1209.457153 983.954407,1220.317261 981.993958,1231.180542   C979.343140,1245.869873 977.000000,1260.627930 973.847656,1275.210083   C969.989746,1293.056396 965.440552,1310.753418 961.167664,1328.509644   C960.326599,1332.005005 962.571533,1332.369263 965.158569,1333.061035   C977.976990,1336.488892 987.641602,1343.541382 991.414124,1356.943726   C991.849792,1358.491455 991.973083,1360.171265 991.976074,1361.790161   C992.012939,1381.455444 991.978455,1401.120850 992.041443,1420.785889   C992.046387,1422.339722 992.099915,1424.460815 993.043579,1425.354614   C1000.700806,1432.607788 1002.420410,1442.409790 1003.803345,1451.921997   C1005.594238,1464.240601 1007.008850,1476.782227 1006.744812,1489.188721   C1006.413147,1504.775513 1005.519653,1520.559692 999.878540,1535.413086   C998.437012,1539.208740 995.407532,1542.381836 993.300049,1545.954468   C992.567627,1547.196167 992.062561,1548.778809 992.054382,1550.209351   C991.966980,1565.541016 991.433228,1580.900757 992.170593,1596.197510   C992.817139,1609.609497 982.268738,1621.670044 970.437927,1626.018555   C968.657288,1626.672974 966.949463,1627.525635 965.104004,1628.643311   C956.979065,1629.000000 948.958191,1629.000000 940.461548,1628.609131   C938.504089,1627.479126 937.075256,1626.597290 935.531982,1626.023560   C923.746765,1621.641602 913.479370,1609.647583 913.803528,1596.188232   C914.461182,1568.882202 914.000000,1541.549194 914.000000,1514.227295   C914.000000,1512.611450 914.000000,1510.995605 914.000000,1509.359863   C913.087952,1509.185791 912.622925,1509.019409 912.157776,1509.019287   C874.506836,1509.004517 836.855957,1508.992065 799.205078,1509.041504   C797.800781,1509.043335 796.332031,1509.490601 795.003723,1510.011719   C784.042725,1514.311035 773.311218,1519.317749 762.117004,1522.871338   C745.676086,1528.090820 729.114563,1533.326172 712.229126,1536.646484   C692.598450,1540.506592 672.626709,1543.729126 652.685791,1544.628296   C629.414734,1545.677490 605.941101,1546.506592 582.685669,1542.997070   C567.413208,1540.692383 552.026611,1538.935059 536.908875,1535.861450   C512.512695,1530.901001 488.837341,1523.407715 465.906067,1513.563232   C460.656219,1511.309692 454.808136,1509.265869 449.210815,1509.199463   C415.396362,1508.798462 381.574799,1509.000000 347.755585,1509.000000   C345.970337,1509.000000 344.185059,1509.000000 342.000000,1509.000000   C342.000000,1511.053833 342.000000,1512.682983 342.000000,1514.312134   C342.000000,1541.634033 342.042328,1568.956177 341.980347,1596.277954   C341.953491,1608.118774 336.197174,1616.919678 326.318298,1622.779541   C321.631287,1625.559692 316.131531,1626.969360 311.000000,1629.000000   C304.645599,1629.000000 298.291199,1629.000000 291.468384,1629.000000  M552.524780,240.999878   C543.789001,243.313568 535.007568,245.468842 526.325867,247.970108   C498.218048,256.068207 471.758209,267.930603 446.711456,283.021210   C426.834747,294.996918 408.223724,308.728668 391.208130,324.440277   C367.962585,345.904480 347.558319,369.848114 330.705383,396.743713   C320.024048,413.790070 310.670013,431.529694 303.117645,450.134796   C295.155365,469.749573 288.972412,489.946198 284.551910,510.716766   C280.423584,530.114563 278.122162,549.719360 277.173035,569.439087   C276.577179,581.819458 277.578033,594.284058 278.021088,606.705200   C278.598450,622.892212 279.268982,639.076599 280.020844,655.256409   C280.579529,667.278564 281.294220,679.293945 282.006073,691.308411   C282.970551,707.586121 283.974487,723.861450 285.008759,740.134888   C285.624420,749.821594 286.311005,759.503967 287.001129,769.185791   C287.983093,782.961975 288.965210,796.738281 290.007812,810.509949   C290.962555,823.120972 291.977081,835.727478 293.003143,848.332947   C293.975250,860.275635 295.033478,872.211304 295.986328,884.155457   C297.031616,897.258179 297.992554,910.367615 299.005798,923.472961   C299.322235,927.565735 299.616577,931.662354 300.046295,935.744019   C301.330902,947.944397 302.738190,960.132141 303.978210,972.336914   C304.774261,980.171936 305.214050,988.044373 306.075012,995.871216   C307.253082,1006.581238 308.778229,1017.252991 309.971252,1027.961548   C311.113647,1038.215698 311.831482,1048.519287 313.077850,1058.759399   C314.890350,1073.650269 317.055634,1088.497925 318.984253,1103.375244   C320.725800,1116.809692 322.109039,1130.295044 324.086853,1143.693481   C326.840942,1162.351196 329.839905,1180.976562 333.030396,1199.564819   C336.846130,1221.795654 340.322144,1244.115723 345.137634,1266.136230   C350.760773,1291.850342 356.953339,1317.491333 364.294006,1342.758789   C368.662872,1357.796753 373.839905,1372.517456 386.801941,1383.848267   C403.458954,1398.408936 420.050629,1412.959229 439.033508,1424.252197   C455.838196,1434.249512 473.126709,1443.636353 490.916321,1451.719849   C509.714172,1460.261719 529.651794,1465.888306 549.858582,1470.542358   C570.468628,1475.289062 591.347839,1477.817749 612.351562,1478.833862   C634.275208,1479.894409 656.285400,1479.142700 677.898193,1474.887573   C696.446533,1471.235596 715.031982,1467.388428 733.171936,1462.143555   C755.878601,1455.578369 777.538513,1446.000732 797.882935,1433.895752   C810.536072,1426.367188 822.785278,1418.095215 834.778809,1409.544312   C843.804138,1403.109497 852.378296,1395.977295 860.708923,1388.650513   C869.489014,1380.927979 877.849976,1372.624634 881.907959,1361.236572   C885.803833,1350.303711 889.858948,1339.382935 892.896973,1328.199585   C897.681580,1310.585938 901.957031,1292.819946 905.909119,1274.998779   C909.031982,1260.916504 911.344849,1246.654541 914.016724,1232.472168   C915.998657,1221.952026 918.192932,1211.466064 919.904114,1200.902100   C921.831360,1189.004761 923.320801,1177.036377 925.004272,1165.099487   C926.392456,1155.257080 927.781616,1145.415039 929.178528,1135.573853   C930.780945,1124.285278 932.506287,1113.012329 933.964294,1101.705078   C935.156372,1092.460449 935.972229,1083.167847 937.067200,1073.909912   C938.313110,1063.375977 939.743469,1052.864014 940.978943,1042.329102   C941.780029,1035.497192 942.311035,1028.634033 943.078552,1021.797913   C944.336304,1010.596619 945.783386,999.416016 946.967957,988.207336   C947.812988,980.210815 948.250061,972.171570 949.062988,964.171021   C950.286316,952.131287 951.804321,940.120850 952.959045,928.075073   C953.837402,918.913330 954.203857,909.702942 955.052429,900.537781   C956.244629,887.660522 957.762634,874.813538 958.973389,861.937866   C960.095215,850.008545 961.063293,838.063538 961.979004,826.116272   C963.373657,807.921143 964.667480,789.718323 965.998718,771.518372   C966.670471,762.335205 967.386536,753.154968 967.983154,743.966919   C969.028992,727.860840 970.020874,711.751221 970.992371,695.640503   C971.696716,683.958923 972.460754,672.278809 972.967712,660.588013   C973.748840,642.575867 974.721619,624.558838 974.890381,606.537048   C975.058105,588.617493 974.745728,570.668884 973.851135,552.772705   C973.281921,541.384216 972.323425,529.814636 969.672485,518.774536   C964.816956,498.552612 959.416626,478.376282 952.692078,458.711426   C945.410522,437.417725 934.975403,417.411652 922.856384,398.382568   C911.362244,380.334717 899.117676,362.813232 883.995483,347.568298   C872.265991,335.743622 860.737305,323.602386 848.019653,312.909851   C836.261292,303.023804 823.274597,294.522461 810.412109,286.043518   C790.065918,272.631409 768.085144,262.330505 745.209167,254.027191   C722.791565,245.890228 699.897095,239.498566 676.079895,236.970383   C663.059326,235.588242 650.027649,233.265396 636.999451,233.254944   C618.895203,233.240402 600.757996,234.624161 582.697083,236.146683   C572.862488,236.975754 563.156311,239.328171 552.524780,240.999878  M940.414001,1599.936279   C945.195679,1603.813599 950.779785,1604.476196 956.652832,1604.000488   C963.610413,1603.436890 967.991150,1598.831055 967.992310,1591.916504   C968.004700,1517.288330 967.981873,1442.660156 968.044556,1368.031982   C968.048340,1363.519653 966.229614,1360.440308 962.215759,1358.746948   C959.566467,1357.629272 956.799011,1356.609741 953.984192,1356.100830   C945.907104,1354.640625 938.000366,1361.404907 938.000305,1369.537964   C937.999756,1443.333252 937.979309,1517.128540 938.079468,1590.923706   C938.083313,1593.727783 939.254883,1596.530151 940.414001,1599.936279  M288.000000,1414.500000   C288.000000,1473.968628 287.986664,1533.437256 288.057617,1592.905762   C288.059998,1594.905762 288.320587,1597.375610 289.471497,1598.822754   C294.580414,1605.246094 308.026001,1606.166748 313.867645,1600.434814   C315.515106,1598.818237 316.867950,1596.006836 316.872589,1593.740356   C317.026428,1518.280396 316.959869,1442.820068 317.100769,1367.360229   C317.109100,1362.884155 315.274261,1360.033081 311.734985,1358.404663   C305.418365,1355.498779 298.863770,1355.472778 292.779144,1359.122681   C289.810883,1360.903198 287.783813,1363.286377 287.873077,1367.526978   C288.195618,1382.845337 288.000000,1398.174805 288.000000,1414.500000  z"
   id="path2" />

<path
   fill="#E30716"
   opacity="1.000000"
   stroke="none"
   d=" M1251.000000,471.532410   C1250.336670,472.831726 1249.325073,473.565796 1249.060425,474.509369   C1240.271484,505.855164 1220.114868,525.060669 1188.233276,532.062561   C1164.571289,537.259399 1142.987427,531.908325 1124.367065,517.421326   C1107.960693,504.656921 1097.148682,487.631348 1094.984131,466.168243   C1094.627563,462.631195 1094.105347,459.110840 1093.594482,455.066803   C1107.048340,455.066803 1119.787598,455.066803 1132.963501,455.066803   C1132.963501,436.902283 1132.963501,419.171814 1132.963501,401.223755   C1139.013550,401.223755 1144.628052,401.223755 1150.688965,401.223755   C1150.688965,418.818237 1150.688965,436.548798 1150.688965,454.638794   C1167.187012,454.638794 1183.248901,454.638794 1199.757568,454.638794   C1199.757568,437.112122 1199.757568,419.381409 1199.757568,401.326996   C1205.588989,401.326996 1210.988281,401.326996 1216.836182,401.326996   C1216.836182,418.968262 1216.836182,436.698364 1216.836182,455.000000   C1228.201416,455.000000 1239.132080,455.000000 1250.531372,455.000000   C1251.000000,460.354919 1251.000000,465.709869 1251.000000,471.532410  z"
   id="path4" />
<path
   fill="#E30716"
   opacity="1.000000"
   stroke="none"
   d=" M1.000003,1187.467529   C1.663347,1186.168213 2.675012,1185.434204 2.939607,1184.490601   C11.728552,1153.144897 31.886139,1133.944458 63.766193,1126.935791   C87.434258,1121.732422 109.007744,1127.198730 127.626617,1141.591187   C144.069168,1154.301392 154.853455,1171.370361 157.023727,1192.832642   C157.202698,1194.602539 157.798248,1196.331177 157.963089,1198.101196   C158.129257,1199.885254 157.999680,1201.696777 157.999680,1203.934204   C144.950470,1203.934204 132.211182,1203.934204 119.035660,1203.934204   C119.035660,1222.098633 119.035660,1239.829102 119.035660,1257.776611   C112.985657,1257.776611 107.371162,1257.776611 101.310379,1257.776611   C101.310379,1240.181030 101.310379,1222.450562 101.310379,1204.360962   C84.812447,1204.360962 68.750626,1204.360962 52.242195,1204.360962   C52.242195,1221.888794 52.242195,1239.618896 52.242195,1257.673096   C46.410694,1257.673096 41.011490,1257.673096 35.163528,1257.673096   C35.163528,1240.031982 35.163528,1222.301147 35.163528,1204.000000   C23.798410,1204.000000 12.867863,1204.000000 1.468657,1204.000000   C1.000000,1198.645020 1.000000,1193.290161 1.000003,1187.467529  z"
   id="path5" />
<path
   fill="#E30716"
   opacity="1.000000"
   stroke="none"
   d=" M632.535339,1.000000   C637.437744,4.004517 642.599915,6.082356 644.147827,12.200227   C646.837402,22.830626 644.237122,31.610668 634.807617,36.412651   C624.355042,41.735641 614.201782,40.009743 607.716736,30.897896   C602.336914,23.339075 603.295410,10.420446 614.478760,3.915504   C615.874695,3.103522 617.348328,2.425251 618.893005,1.342515   C623.356873,1.000000 627.713806,1.000000 632.535339,1.000000  z"
   id="path6" />
<path
   fill="#FFFFFF"
   opacity="1.000000"
   stroke="none"
   d=" M552.958496,240.996704   C563.156311,239.328171 572.862488,236.975754 582.697083,236.146683   C600.757996,234.624161 618.895203,233.240402 636.999451,233.254944   C650.027649,233.265396 663.059326,235.588242 676.079895,236.970383   C699.897095,239.498566 722.791565,245.890228 745.209167,254.027191   C768.085144,262.330505 790.065918,272.631409 810.412109,286.043518   C823.274597,294.522461 836.261292,303.023804 848.019653,312.909851   C860.737305,323.602386 872.265991,335.743622 883.995483,347.568298   C899.117676,362.813232 911.362244,380.334717 922.856384,398.382568   C934.975403,417.411652 945.410522,437.417725 952.692078,458.711426   C959.416626,478.376282 964.816956,498.552612 969.672485,518.774536   C972.323425,529.814636 973.281921,541.384216 973.851135,552.772705   C974.745728,570.668884 975.058105,588.617493 974.890381,606.537048   C974.721619,624.558838 973.748840,642.575867 972.967712,660.588013   C972.460754,672.278809 971.696716,683.958923 970.992371,695.640503   C970.020874,711.751221 969.028992,727.860840 967.983154,743.966919   C967.386536,753.154968 966.670471,762.335205 965.998718,771.518372   C964.667480,789.718323 963.373657,807.921143 961.979004,826.116272   C961.063293,838.063538 960.095215,850.008545 958.973389,861.937866   C957.762634,874.813538 956.244629,887.660522 955.052429,900.537781   C954.203857,909.702942 953.837402,918.913330 952.959045,928.075073   C951.804321,940.120850 950.286316,952.131287 949.062988,964.171021   C948.250061,972.171570 947.812988,980.210815 946.967957,988.207336   C945.783386,999.416016 944.336304,1010.596619 943.078552,1021.797913   C942.311035,1028.634033 941.780029,1035.497192 940.978943,1042.329102   C939.743469,1052.864014 938.313110,1063.375977 937.067200,1073.909912   C935.972229,1083.167847 935.156372,1092.460449 933.964294,1101.705078   C932.506287,1113.012329 930.780945,1124.285278 929.178528,1135.573853   C927.781616,1145.415039 926.392456,1155.257080 925.004272,1165.099487   C923.320801,1177.036377 921.831360,1189.004761 919.904114,1200.902100   C918.192932,1211.466064 915.998657,1221.952026 914.016724,1232.472168   C911.344849,1246.654541 909.031982,1260.916504 905.909119,1274.998779   C901.957031,1292.819946 897.681580,1310.585938 892.896973,1328.199585   C889.858948,1339.382935 885.803833,1350.303711 881.907959,1361.236572   C877.849976,1372.624634 869.489014,1380.927979 860.708923,1388.650513   C852.378296,1395.977295 843.804138,1403.109497 834.778809,1409.544312   C822.785278,1418.095215 810.536072,1426.367188 797.882935,1433.895752   C777.538513,1446.000732 755.878601,1455.578369 733.171936,1462.143555   C715.031982,1467.388428 696.446533,1471.235596 677.898193,1474.887573   C656.285400,1479.142700 634.275208,1479.894409 612.351562,1478.833862   C591.347839,1477.817749 570.468628,1475.289062 549.858582,1470.542358   C529.651794,1465.888306 509.714172,1460.261719 490.916321,1451.719849   C473.126709,1443.636353 455.838196,1434.249512 439.033508,1424.252197   C420.050629,1412.959229 403.458954,1398.408936 386.801941,1383.848267   C373.839905,1372.517456 368.662872,1357.796753 364.294006,1342.758789   C356.953339,1317.491333 350.760773,1291.850342 345.137634,1266.136230   C340.322144,1244.115723 336.846130,1221.795654 333.030396,1199.564819   C329.839905,1180.976562 326.840942,1162.351196 324.086853,1143.693481   C322.109039,1130.295044 320.725800,1116.809692 318.984253,1103.375244   C317.055634,1088.497925 314.890350,1073.650269 313.077850,1058.759399   C311.831482,1048.519287 311.113647,1038.215698 309.971252,1027.961548   C308.778229,1017.252991 307.253082,1006.581238 306.075012,995.871216   C305.214050,988.044373 304.774261,980.171936 303.978210,972.336914   C302.738190,960.132141 301.330902,947.944397 300.046295,935.744019   C299.616577,931.662354 299.322235,927.565735 299.005798,923.472961   C297.992554,910.367615 297.031616,897.258179 295.986328,884.155457   C295.033478,872.211304 293.975250,860.275635 293.003143,848.332947   C291.977081,835.727478 290.962555,823.120972 290.007812,810.509949   C288.965210,796.738281 287.983093,782.961975 287.001129,769.185791   C286.311005,759.503967 285.624420,749.821594 285.008759,740.134888   C283.974487,723.861450 282.970551,707.586121 282.006073,691.308411   C281.294220,679.293945 280.579529,667.278564 280.020844,655.256409   C279.268982,639.076599 278.598450,622.892212 278.021088,606.705200   C277.578033,594.284058 276.577179,581.819458 277.173035,569.439087   C278.122162,549.719360 280.423584,530.114563 284.551910,510.716766   C288.972412,489.946198 295.155365,469.749573 303.117645,450.134796   C310.670013,431.529694 320.024048,413.790070 330.705383,396.743713   C347.558319,369.848114 367.962585,345.904480 391.208130,324.440277   C408.223724,308.728668 426.834747,294.996918 446.711456,283.021210   C471.758209,267.930603 498.218048,256.068207 526.325867,247.970108   C535.007568,245.468842 543.789001,243.313568 552.958496,240.996704  M481.980316,763.468933   C484.126465,765.953796 486.407715,768.335571 488.395905,770.940979   C498.140991,783.711487 510.057068,794.302490 522.783997,803.845093   C536.783813,814.342285 552.126587,822.694946 568.476685,829.125427   C589.531677,837.406372 611.358826,842.100098 633.931580,842.894043   C642.833008,843.207092 651.821167,842.778992 660.688232,841.881775   C670.540588,840.884827 680.415039,839.486877 690.075439,837.342285   C709.786133,832.966858 728.158447,824.999207 745.547791,814.806458   C766.480225,802.536621 784.229309,786.435730 799.487305,767.772827   C811.421570,753.175476 820.633667,736.749207 827.974365,719.319092   C836.556091,698.942017 841.587219,677.616821 842.741089,655.674011   C843.465393,641.901123 842.174011,627.948669 840.887878,614.160706   C838.945557,593.337463 832.411316,573.645935 823.331726,554.937012   C811.906982,531.395996 796.569519,510.712402 776.882263,493.205811   C764.876465,482.529907 751.964844,473.274750 737.979126,465.566132   C713.670837,452.168091 687.412048,444.326813 659.874817,442.265656   C639.364929,440.730469 618.670532,441.420013 598.401489,446.251709   C572.490601,452.428253 548.415100,462.735352 526.592346,478.091858   C510.078949,489.712158 495.417969,503.378265 483.266266,519.494629   C472.716583,533.486206 463.787689,548.524231 457.025970,564.770996   C448.671692,584.844299 443.359711,605.763123 442.213135,627.398499   C441.325104,644.155396 441.726868,660.952820 444.776367,677.720764   C448.108337,696.041565 453.545135,713.561707 461.790680,730.070862   C467.481934,741.465881 474.844940,752.025879 481.980316,763.468933  z"
   id="path7" />
<path
   fill="#FFFFFF"
   opacity="1.000000"
   stroke="none"
   d=" M940.148132,1599.634766   C939.254883,1596.530151 938.083313,1593.727783 938.079468,1590.923706   C937.979309,1517.128540 937.999756,1443.333252 938.000305,1369.537964   C938.000366,1361.404907 945.907104,1354.640625 953.984192,1356.100830   C956.799011,1356.609741 959.566467,1357.629272 962.215759,1358.746948   C966.229614,1360.440308 968.048340,1363.519653 968.044556,1368.031982   C967.981873,1442.660156 968.004700,1517.288330 967.992310,1591.916504   C967.991150,1598.831055 963.610413,1603.436890 956.652832,1604.000488   C950.779785,1604.476196 945.195679,1603.813599 940.148132,1599.634766  z"
   id="path8" />
<path
   fill="#FFFFFF"
   opacity="1.000000"
   stroke="none"
   d=" M288.000000,1414.000000   C288.000000,1398.174805 288.195618,1382.845337 287.873077,1367.526978   C287.783813,1363.286377 289.810883,1360.903198 292.779144,1359.122681   C298.863770,1355.472778 305.418365,1355.498779 311.734985,1358.404663   C315.274261,1360.033081 317.109100,1362.884155 317.100769,1367.360229   C316.959869,1442.820068 317.026428,1518.280396 316.872589,1593.740356   C316.867950,1596.006836 315.515106,1598.818237 313.867645,1600.434814   C308.026001,1606.166748 294.580414,1605.246094 289.471497,1598.822754   C288.320587,1597.375610 288.059998,1594.905762 288.057617,1592.905762   C287.986664,1533.437256 288.000000,1473.968628 288.000000,1414.000000  z"
   id="path9" />
<path
   fill="#E30716"
   opacity="1.000000"
   stroke="none"
   d=" M481.720581,763.213989   C474.844940,752.025879 467.481934,741.465881 461.790680,730.070862   C453.545135,713.561707 448.108337,696.041565 444.776367,677.720764   C441.726868,660.952820 441.325104,644.155396 442.213135,627.398499   C443.359711,605.763123 448.671692,584.844299 457.025970,564.770996   C463.787689,548.524231 472.716583,533.486206 483.266266,519.494629   C495.417969,503.378265 510.078949,489.712158 526.592346,478.091858   C548.415100,462.735352 572.490601,452.428253 598.401489,446.251709   C618.670532,441.420013 639.364929,440.730469 659.874817,442.265656   C687.412048,444.326813 713.670837,452.168091 737.979126,465.566132   C751.964844,473.274750 764.876465,482.529907 776.882263,493.205811   C796.569519,510.712402 811.906982,531.395996 823.331726,554.937012   C832.411316,573.645935 838.945557,593.337463 840.887878,614.160706   C842.174011,627.948669 843.465393,641.901123 842.741089,655.674011   C841.587219,677.616821 836.556091,698.942017 827.974365,719.319092   C820.633667,736.749207 811.421570,753.175476 799.487305,767.772827   C784.229309,786.435730 766.480225,802.536621 745.547791,814.806458   C728.158447,824.999207 709.786133,832.966858 690.075439,837.342285   C680.415039,839.486877 670.540588,840.884827 660.688232,841.881775   C651.821167,842.778992 642.833008,843.207092 633.931580,842.894043   C611.358826,842.100098 589.531677,837.406372 568.476685,829.125427   C552.126587,822.694946 536.783813,814.342285 522.783997,803.845093   C510.057068,794.302490 498.140991,783.711487 488.395905,770.940979   C486.407715,768.335571 484.126465,765.953796 481.720581,763.213989  M797.530518,609.027100   C796.704651,606.079529 795.804871,603.150391 795.064392,600.181519   C788.449951,573.661987 774.597717,551.173523 755.964905,531.611084   C740.143311,515.000244 721.073730,502.909882 699.797607,494.399872   C685.888184,488.836365 671.345215,484.979462 656.472717,484.273315   C643.194946,483.642853 629.762817,484.853394 616.479675,486.107849   C600.029480,487.661438 584.690979,493.521576 570.167419,501.081055   C549.037231,512.079224 530.950806,526.899231 516.449097,545.997498   C497.840637,570.504150 487.033386,598.150330 484.206024,628.609253   C482.745636,644.341858 483.386414,660.347900 487.120331,675.839905   C494.993774,708.506714 510.516724,736.762512 535.820496,759.476257   C549.782349,772.009094 565.150940,781.898987 582.418396,789.158325   C598.604126,795.962830 615.474426,799.789673 632.845154,800.876099   C655.103455,802.268188 676.789001,798.897400 697.770996,791.027893   C715.903259,784.227173 732.346375,774.588928 746.677246,761.682007   C764.593445,745.545959 779.041931,726.806091 788.432251,704.276489   C795.698669,686.842773 799.919373,668.844849 800.977661,650.064148   C801.740967,636.520020 800.298767,623.115784 797.530518,609.027100  z"
   id="path10" />
<path
   fill="#FFFFFF"
   opacity="1.000000"
   stroke="none"
   d=" M797.739136,609.409790   C800.298767,623.115784 801.740967,636.520020 800.977661,650.064148   C799.919373,668.844849 795.698669,686.842773 788.432251,704.276489   C779.041931,726.806091 764.593445,745.545959 746.677246,761.682007   C732.346375,774.588928 715.903259,784.227173 697.770996,791.027893   C676.789001,798.897400 655.103455,802.268188 632.845154,800.876099   C615.474426,799.789673 598.604126,795.962830 582.418396,789.158325   C565.150940,781.898987 549.782349,772.009094 535.820496,759.476257   C510.516724,736.762512 494.993774,708.506714 487.120331,675.839905   C483.386414,660.347900 482.745636,644.341858 484.206024,628.609253   C487.033386,598.150330 497.840637,570.504150 516.449097,545.997498   C530.950806,526.899231 549.037231,512.079224 570.167419,501.081055   C584.690979,493.521576 600.029480,487.661438 616.479675,486.107849   C629.762817,484.853394 643.194946,483.642853 656.472717,484.273315   C671.345215,484.979462 685.888184,488.836365 699.797607,494.399872   C721.073730,502.909882 740.143311,515.000244 755.964905,531.611084   C774.597717,551.173523 788.449951,573.661987 795.064392,600.181519   C795.804871,603.150391 796.704651,606.079529 797.739136,609.409790  z"
   id="path11" />
</svg>
