<svg width="801" height="326" version="1.1" xmlns="http://www.w3.org/2000/svg" desc="Created with imagetracer.js version 1.2.6" ><path fill="rgb(255,255,255)" stroke="rgb(255,255,255)" stroke-width="1" opacity="0.9411764705882353" d="M 411.5 0 Q 418.5 -1.5 420 2.5 Q 421.8 9.3 418.5 11 L 415 12 L 424 42 Q 465.3 47.4 486 74.5 Q 499.7 90.3 506 113.5 L 508 123.5 L 508 131.5 L 509 132.5 L 509 147.5 L 508 148.5 L 507 184.5 L 506 187 Q 514.2 184.5 519 177.5 Q 525 169 528 157.5 L 529 146.5 L 530 145.5 L 530 129.5 L 523 123.5 Q 519.3 119.2 520 112 L 525 112 L 525 98.5 Q 526.9 95.3 533 97 L 533 112 L 541 112 L 541 97 L 549 97 L 549 111 L 555 111 L 555 114.5 L 553 121.5 L 547.5 128 L 545 129.5 L 543 156.5 L 538 174.5 Q 532.5 189.1 521.5 198 L 506.5 206 L 489 206 L 490 178.5 L 491 177.5 L 491 161.5 L 492 160.5 L 492 129.5 Q 485.8 94.2 462.5 76 Q 451.6 66.9 436.5 62 L 421.5 59 L 408.5 59 L 397.5 61 L 381.5 67 Q 368.5 74 359 84.5 Q 345.8 98.8 340 120.5 L 339 131.5 L 338 132.5 L 338 152.5 L 339 153.5 L 339 171.5 L 340 172.5 L 340 180 L 324.5 180 L 323 178.5 L 322 126.5 L 325 111.5 L 334 89.5 Q 342 75.5 353.5 65 Q 372.3 46 405 42 L 414 12 L 409 9.5 Q 407.3 1.8 411.5 0 Z " /><path fill="rgb(255,255,255)" stroke="rgb(255,255,255)" stroke-width="1" opacity="0.9411764705882353" d="M 408.5 106 L 421.5 106 L 432.5 109 Q 443.8 114.2 451 123.5 L 459 139.5 L 461 156.5 L 459 167.5 L 455 177.5 L 441.5 193 Q 434.2 198.7 423.5 201 L 407.5 201 Q 389.4 197.1 380 184.5 L 371 166.5 L 370 161.5 L 370 145.5 Q 373.5 127 385.5 117 L 400.5 108 L 408.5 106 Z M 412 122 Q 402 124 397 129 Q 387 136 385 151 Q 385 165 391 173 Q 398 182 411 185 L 421 185 L 432 180 Q 442 173 445 160 L 445 149 L 439 135 Q 432 122 412 122 Z " /><path fill="rgb(255,255,255)" stroke="rgb(255,255,255)" stroke-width="1" opacity="0.9411764705882353" d="M 131 192 L 147.5 192 L 148 192.5 L 148 323 L 132.5 323 L 132 319.5 L 130.5 320 L 117.5 325 L 102.5 325 Q 88.4 321.6 80 312.5 Q 71.8 304.2 68 291.5 L 67 287.5 L 67 268.5 Q 71.4 248.9 85.5 239 Q 92.8 233.3 103.5 231 L 118.5 231 L 130.5 236 L 131 192 Z M 107 247 L 97 251 L 87 262 L 83 275 L 83 282 L 86 293 L 92 302 L 100 307 L 106 309 L 117 309 L 128 304 L 131 301 L 131 255 L 120 248 L 107 247 Z " /><path fill="rgb(255,255,255)" stroke="rgb(255,255,255)" stroke-width="1" opacity="0.9411764705882353" d="M 325 192 L 341 192 L 341 235.5 L 342.5 235 L 354.5 231 L 368.5 231 Q 385 234.5 394 245.5 Q 406 257.5 406 281.5 Q 403.5 283 405 288.5 L 399 303.5 L 388.5 316 L 373.5 324 Q 366 326.5 354.5 325 L 340 319 L 339.5 323 L 325 323 L 325 192 Z M 357 247 L 343 253 L 341 255 L 341 301 Q 347 306 356 309 L 367 309 L 378 304 Q 386 297 389 284 Q 390 264 381 256 Q 374 246 357 247 Z " /><path fill="rgb(255,255,255)" stroke="rgb(255,255,255)" stroke-width="1" opacity="0.9411764705882353" d="M 577 195 L 598 195 L 598 215 L 577 215 L 577 195 Z " /><path fill="rgb(255,255,255)" stroke="rgb(255,255,255)" stroke-width="1" opacity="0.9411764705882353" d="M 29 207 L 31 207.5 L 31 233 L 61 233 L 61 248 L 31 248 L 31 297.5 Q 32.1 304.9 37.5 308 L 39.5 309 L 50.5 309 L 64 301 L 64 319.5 L 62.5 320 Q 53.4 327.4 34.5 325 Q 26 322.5 21 316.5 L 15 302.5 L 15 248 L 0.5 248 L 0 246.5 L 29 207 Z " /><path fill="rgb(255,255,255)" stroke="rgb(255,255,255)" stroke-width="1" opacity="0.9411764705882353" d="M 543.5 207 L 544 233 L 574 233 L 574 248 L 544 248 L 544 294.5 Q 546.3 295.8 545 300.5 L 549.5 307 Q 553.8 310.7 563.5 309 L 578 301 L 578 318.5 L 576.5 320 L 563.5 325 L 548.5 325 Q 538.3 322.3 533 314.5 L 528 301.5 L 528 248 L 513.5 248 L 513 246.5 L 543.5 207 Z " /><path fill="rgb(255,255,255)" stroke="rgb(255,255,255)" stroke-width="1" opacity="0.9411764705882353" d="M 201.5 231 Q 213.7 229.8 219 235.5 L 218.5 256 Q 213.9 248.1 202.5 247 Q 192.4 249.4 187 256.5 L 186 258.5 L 186 323 L 169.5 323 L 169 322.5 L 169 233 L 185.5 233 Q 186.5 233 186 237.5 L 187.5 237 L 201.5 231 Z " /><path fill="rgb(255,255,255)" stroke="rgb(255,255,255)" stroke-width="1" opacity="0.9411764705882353" d="M 259.5 231 Q 275 229 284.5 233 Q 295.9 237.6 303 246.5 L 312 263.5 L 313 268.5 L 313 287.5 Q 308.7 307.2 294.5 317 L 283.5 323 L 277.5 325 Q 270.7 323.7 267.5 326 L 266.5 325 L 255.5 324 L 244.5 319 L 232 307.5 Q 221.4 295.6 223 271.5 L 225 262.5 Q 222.7 261.2 224 256.5 L 228.5 249 L 232.5 251 L 239.5 245 L 243 249.5 L 238 254.5 L 238 256.5 L 241.5 259 L 246.5 253 L 251 256.5 L 246 263.5 L 249 267.5 L 248 270 L 242.5 273 L 239 273 Q 238.7 295 252.5 304 Q 259 311 274.5 309 Q 284.9 305.9 291 298.5 L 295 292.5 L 298 278.5 L 296 268.5 L 292 260.5 L 282.5 251 Q 276.2 245.3 262.5 247 L 257.5 249 L 246 238.5 Q 244.9 235.2 247.5 236 L 259.5 231 Z " /><path fill="rgb(255,255,255)" stroke="rgb(255,255,255)" stroke-width="1" opacity="0.9411764705882353" d="M 454.5 231 L 471.5 231 L 486 236 L 486 238.5 L 478.5 246 L 473.5 249 Q 468.8 245.2 458.5 247 Q 446.2 250.7 440 260.5 Q 434 268 434 281.5 L 437 292.5 L 444.5 302 L 457.5 309 L 468.5 309 Q 480.1 306.1 486 297.5 Q 493.7 288.9 493 273 Q 486.8 273.8 484 269.5 L 483 266.5 L 486 263.5 L 482 259.5 L 481 256.5 L 485.5 253 L 490.5 259 L 494 256.5 L 489 248.5 L 493.5 245 L 499.5 251 L 500.5 250 L 503.5 249 Q 508.5 252.5 508 261.5 L 507 265.5 Q 510.3 272.7 509 284.5 Q 505.4 306.4 490.5 317 L 479.5 323 L 463.5 326 L 462.5 325 L 454.5 325 L 445.5 322 L 431 311.5 L 421 295.5 L 418 276.5 L 419 275.5 L 419 267.5 L 423 255.5 L 435.5 240 Q 443 233.5 454.5 231 Z " /><path fill="rgb(255,255,255)" stroke="rgb(255,255,255)" stroke-width="1" opacity="0.9411764705882353" d="M 663.5 231 L 680.5 231 L 692.5 234 L 701 238.5 L 701 255.5 L 699.5 256 L 683.5 248 L 666.5 247 Q 653.9 249.9 648 259.5 L 643 271.5 L 643 284.5 Q 645.6 297.4 654.5 304 L 665.5 309 L 677.5 309 L 687.5 306 L 698.5 299 L 701 299 L 701 316.5 L 699.5 318 L 691.5 322 L 680.5 325 L 662.5 325 Q 645.9 321.1 637 309.5 Q 630 301.5 627 289.5 L 626 271.5 Q 630.3 249.8 645.5 239 Q 652.8 233.3 663.5 231 Z " /><path fill="rgb(255,255,255)" stroke="rgb(255,255,255)" stroke-width="1" opacity="0.9411764705882353" d="M 746.5 231 Q 759.2 229.3 767.5 232 Q 777.1 234.9 783.5 241 L 784 233 L 800 233 L 800 275.5 L 801 279.5 L 800 280.5 L 800 323 L 784 323 L 784 315.5 L 780.5 318 Q 773.6 323.1 763.5 325 L 746.5 325 Q 727.9 321.1 719 307.5 Q 712.2 299.3 710 286.5 L 710 269.5 Q 714.4 249.4 728.5 239 Q 735.8 233.3 746.5 231 Z M 750 247 L 739 252 L 732 259 L 728 267 L 726 276 Q 726 290 732 298 Q 738 306 750 309 Q 764 311 771 305 Q 782 298 784 283 Q 785 267 778 259 Q 771 245 750 247 Z " /><path fill="rgb(255,255,255)" stroke="rgb(255,255,255)" stroke-width="1" opacity="0.9411764705882353" d="M 596 233 L 612.5 233 L 613 233.5 L 613 323 L 596.5 323 L 596 322.5 L 596 233 Z " /><path fill="rgb(0,0,0)" stroke="rgb(0,0,0)" stroke-width="1" opacity="0" d="M 0 0 L 411 0.5 Q 407.3 2.3 409 9.5 L 414 12 L 405 42 L 391.5 44 L 371.5 52 Q 357.5 60 347 71.5 Q 332 87.5 325 111.5 L 322 126.5 L 322 160.5 L 323 161.5 L 323 178.5 L 324.5 180 L 340 180 L 340 172.5 L 339 171.5 L 339 153.5 L 338 152.5 L 338 132.5 L 339 131.5 L 340 120.5 L 344 108.5 Q 351.4 90.9 364.5 79 Q 374.6 69.6 388.5 64 L 408.5 59 L 421.5 59 L 436.5 62 L 452.5 69 Q 464.4 76.1 473 86.5 Q 483.6 98.4 489 115.5 L 492 129.5 L 492 160.5 L 491 161.5 L 491 177.5 L 490 178.5 L 489 206 L 506.5 206 L 509.5 205 Q 521.7 200.2 529 190.5 Q 537 180 541 165.5 L 544 149.5 L 545 129.5 L 546.5 128 L 551 124.5 L 554 119.5 L 555 111 L 549 111 L 549 97 L 541 97 L 541 112 L 533 112 L 533 97 L 526.5 97 L 525 98.5 L 525 112 L 520 112 L 520 116.5 Q 521.8 124.2 527.5 128 L 530 129.5 L 530 145.5 L 529 146.5 L 528 157.5 L 521 174.5 L 512.5 184 L 506 187 L 507 184.5 L 509 132.5 L 508 131.5 L 508 123.5 L 506 113.5 L 498 92.5 Q 488.5 74.5 473.5 62 L 450.5 48 L 434.5 43 L 424 42 L 415 12 L 420 9.5 Q 421.8 2.3 418 0.5 L 801 0 L 800.5 276 L 800 233 L 784 233 L 784 240.5 L 781.5 239 Q 774.2 233.3 763.5 231 L 746.5 231 Q 728.4 235.4 719 248.5 Q 712.7 257.2 710 269.5 L 710 286.5 Q 714.4 306.6 728.5 317 Q 735.5 322.9 746.5 325 L 763.5 325 Q 776.2 322.7 783.5 315 L 784 323 L 800 323 L 800 280.5 L 801 280.5 L 801 325.5 L 800.5 326 L 465.5 326 L 465.5 325 Q 479.7 325.2 487.5 319 L 500 307.5 L 508 290.5 L 509 272.5 L 507 262.5 L 508 257.5 L 506 251.5 L 503.5 249 L 499.5 251 L 492.5 245 L 489 249.5 L 494 256.5 L 490.5 259 L 485.5 253 L 481 256.5 L 486 263.5 L 483 267.5 L 485.5 271 L 493 273 Q 493.3 295 479.5 304 Q 472.7 310.7 457.5 309 Q 447.1 305.9 441 298.5 L 435 287.5 L 434 277.5 L 436 268.5 L 440 260.5 L 449.5 251 Q 455.8 245.3 469.5 247 L 474.5 249 L 486 238.5 Q 487.1 235.2 484.5 236 Q 474.4 228.6 454.5 231 Q 438.1 235.1 429 246.5 L 421 260.5 L 419 267.5 L 418 279.5 L 421 295.5 Q 425.2 305.8 432.5 313 L 445.5 322 L 454.5 325 L 463 325.5 L 269.5 326 L 269.5 325 L 277.5 325 L 291.5 319 L 305 306.5 Q 310.7 298.7 313 287.5 L 313 268.5 Q 309.1 249.9 296.5 240 Q 289 233.5 277.5 231 L 259.5 231 L 246 236 L 246 238.5 L 255.5 248 L 258.5 249 Q 263.2 245.2 273.5 247 Q 285.8 250.7 292 260.5 L 296 268.5 L 298 280.5 L 295 292.5 L 287.5 302 L 274.5 309 L 262.5 309 Q 251.9 305.6 246 297.5 Q 238.3 288.9 239 273 L 242.5 273 L 248 270 L 249 266.5 Q 243 263.5 249 260.5 L 251 256.5 L 246.5 253 L 241.5 259 L 238 256.5 L 238 254.5 L 243 248.5 L 238.5 245 L 231.5 251 L 228.5 249 Q 223.5 252.5 224 261.5 L 225 265.5 Q 221.3 272.8 223 285.5 Q 226.6 306.9 241.5 317 Q 250.8 324.8 267 325.5 L 0 326 L 0 248.5 L 0.5 248 L 15 248 L 15 302.5 Q 17.2 313.8 24.5 320 Q 32.3 327.7 50.5 325 L 64 320 L 64 301.5 L 62.5 301 Q 58.2 306.7 50.5 309 L 39.5 309 L 33 303.5 L 31 297.5 L 31 248 L 61 248 L 61 233 L 31 233 L 31 207.5 L 29 207 L 0.5 246 L 0 0 Z M 409 106 L 401 108 L 386 117 Q 374 127 370 146 L 370 162 L 371 167 L 380 185 Q 389 197 408 201 L 424 201 Q 434 199 442 193 L 455 178 L 459 168 L 461 157 L 459 140 L 451 124 Q 444 114 433 109 L 422 106 L 409 106 Z M 131 192 L 131 236 L 119 231 L 104 231 Q 93 233 86 239 Q 71 249 67 269 L 67 288 L 68 292 Q 72 304 80 313 Q 88 322 103 325 L 118 325 L 131 320 L 132 320 L 133 323 L 148 323 L 148 193 L 148 192 L 131 192 Z M 325 192 L 325 323 L 340 323 L 340 319 L 355 325 Q 366 327 374 324 L 389 316 L 399 304 L 405 289 Q 404 283 406 282 Q 406 258 394 246 Q 385 234 369 231 L 355 231 L 343 235 L 341 236 L 341 192 L 325 192 Z M 577 195 L 577 215 L 598 215 L 598 195 L 577 195 Z M 544 207 L 513 247 L 514 248 L 528 248 L 528 302 L 533 315 Q 538 322 549 325 L 564 325 L 577 320 L 578 319 L 578 301 L 564 309 Q 554 311 550 307 L 545 301 Q 546 296 544 295 L 544 248 L 574 248 L 574 233 L 544 233 L 544 207 Z M 202 231 L 188 237 L 186 238 Q 186 233 186 233 L 169 233 L 169 323 L 170 323 L 186 323 L 186 259 L 187 257 Q 192 249 203 247 Q 214 248 219 256 L 219 236 Q 214 230 202 231 Z M 664 231 Q 653 233 646 239 Q 630 250 626 272 L 627 290 Q 630 302 637 310 Q 646 321 663 325 L 681 325 L 692 322 L 700 318 L 701 317 L 701 299 L 699 299 L 688 306 L 678 309 L 666 309 L 655 304 Q 646 297 643 285 L 643 272 L 648 260 Q 654 250 667 247 L 684 248 L 700 256 L 701 256 L 701 239 L 693 234 L 681 231 L 664 231 Z M 596 233 L 596 323 L 597 323 L 613 323 L 613 234 L 613 233 L 596 233 Z " /><path fill="rgb(0,0,0)" stroke="rgb(0,0,0)" stroke-width="1" opacity="0" d="M 411.5 122 Q 431.5 122 439 134.5 L 445 148.5 L 445 159.5 Q 441.8 173.3 431.5 180 L 420.5 185 L 410.5 185 Q 397.8 181.7 391 172.5 Q 384.8 164.7 385 150.5 Q 387.4 136.4 396.5 129 Q 402.2 123.7 411.5 122 Z " /><path fill="rgb(0,0,0)" stroke="rgb(0,0,0)" stroke-width="1" opacity="0" d="M 106.5 247 L 119.5 248 L 131 254.5 L 131 300.5 L 127.5 304 L 116.5 309 L 105.5 309 L 99.5 307 L 92 302 L 86 292.5 L 83 281.5 L 83 274.5 L 87 261.5 L 96.5 251 L 106.5 247 Z " /><path fill="rgb(0,0,0)" stroke="rgb(0,0,0)" stroke-width="1" opacity="0" d="M 356.5 247 Q 374.1 245.9 381 255.5 Q 390.2 264.3 389 283.5 Q 386.2 296.7 377.5 304 L 366.5 309 L 355.5 309 Q 346.6 306.4 341 300.5 L 341 254.5 L 342.5 253 L 356.5 247 Z " /><path fill="rgb(0,0,0)" stroke="rgb(0,0,0)" stroke-width="1" opacity="0" d="M 749.5 247 Q 771.3 245.3 778 258.5 Q 785 266.5 784 282.5 Q 781.5 298 770.5 305 Q 763.8 310.8 749.5 309 Q 737.6 306.4 732 297.5 Q 725.8 289.7 726 275.5 L 728 266.5 L 732 258.5 L 738.5 252 L 749.5 247 Z " /></svg>